<?xml version="1.0" encoding="UTF-8" standalone="no"?>
<!DOCTYPE svg PUBLIC "-//W3C//DTD SVG 1.1//EN" "http://www.w3.org/Graphics/SVG/1.1/DTD/svg11.dtd">
<svg width="100%" height="100%" viewBox="0 0 36 36" version="1.1" xmlns="http://www.w3.org/2000/svg" xmlns:xlink="http://www.w3.org/1999/xlink" xml:space="preserve" xmlns:serif="http://www.serif.com/" style="fill-rule:evenodd;clip-rule:evenodd;stroke-linecap:round;stroke-linejoin:round;stroke-miterlimit:1.5;">
    <g transform="matrix(1,0,0,1.31579,5,-5.86653)">
        <path d="M28,9.28L28,28.28L7,23.72L7,4.72L28,9.28Z" style="fill:white;stroke:black;stroke-width:0.34px;"/>
    </g>
    <g transform="matrix(1,0,0,1.31579,3,-4.86653)">
        <path d="M28,9.28L28,28.28L7,23.72L7,4.72L28,9.28Z" style="fill:white;stroke:black;stroke-width:0.34px;"/>
    </g>
    <g transform="matrix(1,0,0,1.31579,1,-3.86653)">
        <path d="M28,9.28L28,28.28L7,23.72L7,4.72L28,9.28Z" style="fill:white;stroke:black;stroke-width:0.34px;"/>
    </g>
    <g transform="matrix(1,0,0,1.31579,-1,-2.86653)">
        <path d="M28,9.28L28,28.28L7,23.72L7,4.72L28,9.28Z" style="fill:white;stroke:black;stroke-width:0.34px;"/>
    </g>
    <g transform="matrix(1,0,0,1,-3,0.344)">
        <g>
            <g transform="matrix(1,0,0,1.31579,0,-2.21053)">
                <path d="M28,9.28L28,28.28C21,26.76 14,25.24 7,23.72L7,4.72C14,6.24 21,7.76 28,9.28Z" style="fill:white;stroke:black;stroke-width:0.34px;"/>
            </g>
            <g id="Pauli-Array" serif:id="Pauli Array">
                <g>
                    <g transform="matrix(10,0,0,10,7.64,18)">
                        <path d="M0.234,-0.234L0.25,-0.21L0.327,-0.188L0.343,-0.203L0.343,-0.438L0.448,-0.408C0.561,-0.375 0.636,-0.477 0.636,-0.579C0.636,-0.691 0.56,-0.822 0.448,-0.854L0.25,-0.91L0.234,-0.896L0.234,-0.234ZM0.343,-0.56L0.343,-0.761L0.441,-0.733C0.492,-0.718 0.527,-0.662 0.527,-0.611C0.527,-0.563 0.497,-0.516 0.441,-0.532L0.343,-0.56Z" style="fill-rule:nonzero;"/>
                    </g>
                    <g transform="matrix(10,0,0,10,13.23,18)">
                        <path d="M0.094,-0.222C0.094,-0.151 0.134,-0.074 0.208,-0.053C0.248,-0.041 0.278,-0.049 0.31,-0.074L0.32,-0.044L0.335,-0.026L0.365,-0.018L0.381,-0.032L0.381,-0.249C0.381,-0.346 0.348,-0.433 0.251,-0.46L0.137,-0.474L0.125,-0.452L0.133,-0.398L0.152,-0.374L0.246,-0.363C0.287,-0.351 0.291,-0.316 0.29,-0.281L0.229,-0.31C0.155,-0.331 0.094,-0.298 0.094,-0.222ZM0.187,-0.196C0.187,-0.231 0.212,-0.242 0.241,-0.234L0.288,-0.209L0.288,-0.154L0.23,-0.131C0.202,-0.139 0.187,-0.168 0.187,-0.196Z" style="fill-rule:nonzero;"/>
                    </g>
                    <g transform="matrix(10,0,0,10,17.5,18)">
                        <path d="M0.045,-0.174C0.045,-0.079 0.086,0.035 0.186,0.063C0.235,0.077 0.261,0.067 0.299,0.037L0.309,0.073L0.325,0.093L0.356,0.102L0.372,0.087L0.372,-0.275L0.356,-0.298L0.292,-0.316L0.274,-0.303L0.274,-0.095C0.269,-0.064 0.245,-0.028 0.207,-0.039C0.16,-0.052 0.145,-0.101 0.145,-0.142L0.145,-0.339L0.129,-0.363L0.06,-0.383L0.045,-0.368L0.045,-0.174Z" style="fill-rule:nonzero;"/>
                    </g>
                    <g transform="matrix(10,0,0,10,22.53,18)">
                        <path d="M-0.03,0.116L-0.014,0.14L0.056,0.16L0.072,0.145L0.072,-0.517L0.056,-0.54L-0.014,-0.56L-0.03,-0.546L-0.03,0.116Z" style="fill-rule:nonzero;"/>
                    </g>
                    <g transform="matrix(10,0,0,10,24.95,18)">
                        <path d="M-0.019,-0.335C0.018,-0.324 0.04,-0.354 0.04,-0.387C0.04,-0.421 0.016,-0.462 -0.019,-0.473C-0.056,-0.483 -0.076,-0.451 -0.076,-0.42C-0.076,-0.386 -0.055,-0.345 -0.019,-0.335ZM-0.069,0.174L-0.053,0.198L0.017,0.218L0.033,0.203L0.033,-0.159L0.017,-0.182L-0.053,-0.202L-0.069,-0.188L-0.069,0.174Z" style="fill-rule:nonzero;"/>
                    </g>
                    <g transform="matrix(10,0,0,10,6.35,28)">
                        <path d="M0.193,-0.264L0.266,-0.243L0.29,-0.256L0.331,-0.352L0.582,-0.28L0.624,-0.16L0.648,-0.133L0.721,-0.113L0.735,-0.134L0.477,-0.881L0.462,-0.896L0.454,-0.899L0.44,-0.892L0.178,-0.294L0.193,-0.264ZM0.372,-0.451L0.455,-0.648L0.457,-0.647L0.541,-0.403L0.372,-0.451Z" style="fill-rule:nonzero;"/>
                    </g>
                    <g transform="matrix(10,0,0,10,12.93,28)">
                        <path d="M0.124,-0.114L0.139,-0.091L0.204,-0.072L0.223,-0.086L0.223,-0.328C0.234,-0.351 0.26,-0.358 0.283,-0.352L0.307,-0.339L0.327,-0.342L0.358,-0.398C0.37,-0.425 0.321,-0.449 0.293,-0.457C0.255,-0.468 0.221,-0.454 0.198,-0.422L0.187,-0.464L0.171,-0.482L0.139,-0.491L0.124,-0.476L0.124,-0.114Z" style="fill-rule:nonzero;"/>
                    </g>
                    <g transform="matrix(10,0,0,10,16.34,28)">
                        <path d="M0.069,-0.032L0.085,-0.009L0.15,0.01L0.169,-0.004L0.169,-0.246C0.18,-0.269 0.206,-0.276 0.229,-0.27L0.253,-0.257L0.272,-0.26L0.303,-0.316C0.315,-0.343 0.267,-0.367 0.239,-0.375C0.2,-0.386 0.166,-0.372 0.144,-0.34L0.132,-0.382L0.117,-0.4L0.085,-0.409L0.069,-0.394L0.069,-0.032Z" style="fill-rule:nonzero;"/>
                    </g>
                    <g transform="matrix(10,0,0,10,19.75,28)">
                        <path d="M-0.01,-0.066C-0.01,0.005 0.03,0.083 0.103,0.104C0.143,0.115 0.174,0.108 0.206,0.082L0.216,0.112L0.23,0.13L0.261,0.139L0.276,0.124L0.276,-0.093C0.276,-0.19 0.244,-0.276 0.147,-0.304L0.033,-0.317L0.021,-0.296L0.029,-0.242L0.048,-0.218L0.142,-0.206C0.183,-0.195 0.186,-0.159 0.186,-0.125L0.124,-0.153C0.051,-0.174 -0.01,-0.141 -0.01,-0.066ZM0.082,-0.039C0.082,-0.074 0.107,-0.086 0.137,-0.078L0.184,-0.052L0.184,0.003L0.126,0.025C0.098,0.017 0.082,-0.012 0.082,-0.039Z" style="fill-rule:nonzero;"/>
                    </g>
                    <g transform="matrix(10,0,0,10,24.02,28)">
                        <path d="M0.039,0.17L-0.08,0.436L-0.066,0.468L0.007,0.488L0.021,0.48L0.278,-0.108L0.264,-0.138L0.196,-0.158L0.176,-0.152L0.092,0.05L0.091,0.049L0.007,-0.201L-0.008,-0.216L-0.083,-0.238L-0.098,-0.216L0.039,0.17Z" style="fill-rule:nonzero;"/>
                    </g>
                </g>
            </g>
        </g>
    </g>
</svg>
